<svg width="68" height="51" viewBox="0 0 68 51" fill="none" xmlns="http://www.w3.org/2000/svg">
<g filter="url(#filter0_dd_3481_1501)">
<rect x="10.8438" y="6" width="46.6143" height="30.0304" rx="5.37857" fill="white"/>
<rect x="10.3438" y="5.5" width="47.6143" height="31.0304" rx="5.87857" stroke="#383B42"/>
<path d="M25.92 17.0815C26.231 16.6925 26.4421 16.1702 26.3864 15.6365C25.9311 15.6591 25.3756 15.9368 25.054 16.3261C24.7652 16.6595 24.5096 17.2036 24.5762 17.715C25.0873 17.7593 25.5978 17.4595 25.92 17.0815Z" fill="#000008"/>
<path d="M26.3806 17.8148C25.6385 17.7706 25.0074 18.236 24.653 18.236C24.2984 18.236 23.7557 17.8371 23.1687 17.8479C22.4047 17.8591 21.6957 18.2911 21.308 18.9781C20.5106 20.3526 21.0976 22.3914 21.8731 23.5108C22.2497 24.0646 22.7035 24.6744 23.3015 24.6525C23.8666 24.6303 24.088 24.2866 24.7749 24.2866C25.4612 24.2866 25.6607 24.6525 26.2588 24.6414C26.879 24.6303 27.2668 24.0873 27.6434 23.533C28.0754 22.9016 28.2523 22.292 28.2634 22.2586C28.2523 22.2475 27.0674 21.7929 27.0564 20.4299C27.0452 19.2886 27.9867 18.7458 28.031 18.7121C27.4993 17.9258 26.6686 17.8371 26.3806 17.8148Z" fill="#000008"/>
<path d="M32.8427 16.2703C34.4557 16.2703 35.579 17.3822 35.579 19.001C35.579 20.6256 34.4326 21.7433 32.8022 21.7433H31.0163V24.5835H29.7259V16.2703L32.8427 16.2703ZM31.0163 20.6602H32.4969C33.6203 20.6602 34.2597 20.0553 34.2597 19.0068C34.2597 17.9583 33.6203 17.3592 32.5026 17.3592H31.0163V20.6602Z" fill="#000008"/>
<path d="M35.9161 22.861C35.9161 21.8008 36.7284 21.1499 38.1688 21.0692L39.8278 20.9713V20.5047C39.8278 19.8306 39.3727 19.4274 38.6124 19.4274C37.8921 19.4274 37.4427 19.773 37.3333 20.3146H36.1581C36.2272 19.2199 37.1604 18.4134 38.6584 18.4134C40.1274 18.4134 41.0664 19.1911 41.0664 20.4067V24.5835H39.8738V23.5868H39.8451C39.4938 24.2609 38.7275 24.6871 37.9325 24.6871C36.7457 24.6871 35.9161 23.9497 35.9161 22.861ZM39.8278 22.3137V21.8355L38.3357 21.9276C37.5925 21.9795 37.172 22.3079 37.172 22.8264C37.172 23.3563 37.6098 23.702 38.2781 23.702C39.148 23.702 39.8278 23.1029 39.8278 22.3137Z" fill="#000008"/>
<path d="M42.1923 26.813V25.8048C42.2843 25.8278 42.4916 25.8278 42.5954 25.8278C43.1715 25.8278 43.4826 25.5859 43.6727 24.9637C43.6727 24.9522 43.7822 24.595 43.7822 24.5892L41.5931 18.5228H42.941L44.4736 23.4543H44.4965L46.0291 18.5228H47.3426L45.0726 24.9003C44.5543 26.3694 43.9551 26.8418 42.6992 26.8418C42.5954 26.8418 42.2843 26.8303 42.1923 26.813Z" fill="#000008"/>
</g>
<defs>
<filter id="filter0_dd_3481_1501" x="0.879464" y="0.517857" width="66.5438" height="49.9588" filterUnits="userSpaceOnUse" color-interpolation-filters="sRGB">
<feFlood flood-opacity="0" result="BackgroundImageFix"/>
<feColorMatrix in="SourceAlpha" type="matrix" values="0 0 0 0 0 0 0 0 0 0 0 0 0 0 0 0 0 0 127 0" result="hardAlpha"/>
<feOffset dy="0.448214"/>
<feGaussianBlur stdDeviation="2.24107"/>
<feColorMatrix type="matrix" values="0 0 0 0 0.717647 0 0 0 0 0.717647 0 0 0 0 0.717647 0 0 0 0.08 0"/>
<feBlend mode="normal" in2="BackgroundImageFix" result="effect1_dropShadow_3481_1501"/>
<feColorMatrix in="SourceAlpha" type="matrix" values="0 0 0 0 0 0 0 0 0 0 0 0 0 0 0 0 0 0 127 0" result="hardAlpha"/>
<feOffset dy="4.48214"/>
<feGaussianBlur stdDeviation="4.48214"/>
<feColorMatrix type="matrix" values="0 0 0 0 0.717647 0 0 0 0 0.717647 0 0 0 0 0.717647 0 0 0 0.08 0"/>
<feBlend mode="normal" in2="effect1_dropShadow_3481_1501" result="effect2_dropShadow_3481_1501"/>
<feBlend mode="normal" in="SourceGraphic" in2="effect2_dropShadow_3481_1501" result="shape"/>
</filter>
</defs>
</svg>
