<svg width="68" height="51" viewBox="0 0 68 51" fill="none" xmlns="http://www.w3.org/2000/svg">
<g filter="url(#filter0_dd_3481_1503)">
<rect x="10.457" y="6" width="46.6143" height="30.0304" rx="5.37857" fill="white"/>
<rect x="9.95703" y="5.5" width="47.6143" height="31.0304" rx="5.87857" stroke="#383B42"/>
<path d="M32.7514 24.6141H31.703V16.4558H34.4825C35.1869 16.4558 35.7876 16.6906 36.279 17.1602C36.7814 17.6299 37.0326 18.2032 37.0326 18.8803C37.0326 19.5739 36.7814 20.1472 36.279 20.6114C35.793 21.0755 35.1924 21.3049 34.4825 21.3049H32.7514V24.6141ZM32.7514 17.4606V20.3056H34.5043C34.9193 20.3056 35.2688 20.1636 35.5418 19.8851C35.8203 19.6066 35.9623 19.2681 35.9623 18.8858C35.9623 18.509 35.8203 18.1759 35.5418 17.8974C35.2688 17.608 34.9248 17.466 34.5043 17.466H32.7514V17.4606Z" fill="#3C4043"/>
<path d="M39.7737 18.8476C40.5491 18.8476 41.1607 19.0551 41.6085 19.4701C42.0563 19.8851 42.2802 20.453 42.2802 21.1738V24.6141H41.2809V23.8386H41.2372C40.8058 24.4775 40.227 24.7943 39.5062 24.7943C38.8891 24.7943 38.3758 24.6141 37.9608 24.2482C37.5458 23.8823 37.3383 23.4291 37.3383 22.883C37.3383 22.3042 37.5567 21.8455 37.9936 21.5069C38.4304 21.1629 39.0147 20.9936 39.741 20.9936C40.3635 20.9936 40.8768 21.1083 41.2754 21.3377V21.0974C41.2754 20.7315 41.1334 20.4257 40.844 20.1691C40.5546 19.9124 40.216 19.7868 39.8283 19.7868C39.2441 19.7868 38.7799 20.0325 38.4413 20.5295L37.5185 19.9506C38.0263 19.2134 38.7799 18.8476 39.7737 18.8476ZM38.4195 22.8994C38.4195 23.1724 38.5342 23.4018 38.769 23.582C38.9983 23.7622 39.2714 23.855 39.5826 23.855C40.0249 23.855 40.4181 23.6912 40.7621 23.3636C41.1061 23.0359 41.2809 22.6537 41.2809 22.2114C40.9532 21.9547 40.5 21.8237 39.9157 21.8237C39.4898 21.8237 39.1348 21.9274 38.8509 22.1294C38.5615 22.3424 38.4195 22.5991 38.4195 22.8994Z" fill="#3C4043"/>
<path d="M47.9811 19.0278L44.4863 27.066H43.4051L44.7048 24.2537L42.4004 19.0278H43.5416L45.2017 23.036H45.2235L46.8399 19.0278H47.9811Z" fill="#3C4043"/>
<path d="M28.5811 20.6441C28.5811 20.3023 28.5505 19.9752 28.4937 19.6607H24.099V21.4627L26.63 21.4633C26.5273 22.0628 26.197 22.574 25.6908 22.9147V24.0838H27.1974C28.0771 23.2696 28.5811 22.0661 28.5811 20.6441Z" fill="#4285F4"/>
<path d="M25.6913 22.9148C25.2719 23.1976 24.7319 23.3631 24.1001 23.3631C22.8796 23.3631 21.8443 22.5407 21.4735 21.4322H19.9194V22.6379C20.6893 24.1658 22.2718 25.2142 24.1001 25.2142C25.3637 25.2142 26.4252 24.7987 27.1979 24.0833L25.6913 22.9148Z" fill="#34A853"/>
<path d="M21.3271 20.5377C21.3271 20.2264 21.379 19.9255 21.4734 19.6427V18.4369H19.9193C19.601 19.0687 19.4219 19.7819 19.4219 20.5377C19.4219 21.2934 19.6015 22.0066 19.9193 22.6384L21.4734 21.4327C21.379 21.1498 21.3271 20.8489 21.3271 20.5377Z" fill="#FABB05"/>
<path d="M24.1001 17.7118C24.7897 17.7118 25.4073 17.9493 25.895 18.4135L27.2301 17.0794C26.4192 16.3242 25.362 15.8606 24.1001 15.8606C22.2724 15.8606 20.6893 16.909 19.9193 18.4369L21.4734 19.6427C21.8442 18.5341 22.8796 17.7118 24.1001 17.7118Z" fill="#E94235"/>
</g>
<defs>
<filter id="filter0_dd_3481_1503" x="0.492745" y="0.517857" width="66.5438" height="49.9588" filterUnits="userSpaceOnUse" color-interpolation-filters="sRGB">
<feFlood flood-opacity="0" result="BackgroundImageFix"/>
<feColorMatrix in="SourceAlpha" type="matrix" values="0 0 0 0 0 0 0 0 0 0 0 0 0 0 0 0 0 0 127 0" result="hardAlpha"/>
<feOffset dy="0.448214"/>
<feGaussianBlur stdDeviation="2.24107"/>
<feColorMatrix type="matrix" values="0 0 0 0 0.717647 0 0 0 0 0.717647 0 0 0 0 0.717647 0 0 0 0.08 0"/>
<feBlend mode="normal" in2="BackgroundImageFix" result="effect1_dropShadow_3481_1503"/>
<feColorMatrix in="SourceAlpha" type="matrix" values="0 0 0 0 0 0 0 0 0 0 0 0 0 0 0 0 0 0 127 0" result="hardAlpha"/>
<feOffset dy="4.48214"/>
<feGaussianBlur stdDeviation="4.48214"/>
<feColorMatrix type="matrix" values="0 0 0 0 0.717647 0 0 0 0 0.717647 0 0 0 0 0.717647 0 0 0 0.08 0"/>
<feBlend mode="normal" in2="effect1_dropShadow_3481_1503" result="effect2_dropShadow_3481_1503"/>
<feBlend mode="normal" in="SourceGraphic" in2="effect2_dropShadow_3481_1503" result="shape"/>
</filter>
</defs>
</svg>
