<svg width="156" height="25" viewBox="0 0 156 25" fill="none" xmlns="http://www.w3.org/2000/svg">
<path d="M19.4205 0.727272V24H15.6705L4.70455 8.14773H4.51136V24H0.295455V0.727272H4.06818L15.0227 16.5909H15.2273V0.727272H19.4205ZM31.2397 24.3409C29.4897 24.3409 27.9783 23.9773 26.7056 23.25C25.4404 22.5152 24.4669 21.4773 23.7851 20.1364C23.1033 18.7879 22.7624 17.2008 22.7624 15.375C22.7624 13.5795 23.1033 12.0038 23.7851 10.6477C24.4745 9.28409 25.4366 8.22348 26.6715 7.46591C27.9063 6.70076 29.3571 6.31818 31.0238 6.31818C32.0995 6.31818 33.1147 6.49242 34.0692 6.84091C35.0313 7.18182 35.8798 7.71212 36.6147 8.43182C37.3571 9.15151 37.9404 10.0682 38.3647 11.1818C38.7889 12.2879 39.001 13.6061 39.001 15.1364V16.3977H24.6942V13.625H35.0578C35.0503 12.8371 34.8798 12.1364 34.5465 11.5227C34.2131 10.9015 33.7472 10.4129 33.1488 10.0568C32.5578 9.70076 31.8684 9.52273 31.0806 9.52273C30.2397 9.52273 29.501 9.72727 28.8647 10.1364C28.2283 10.5379 27.7321 11.0682 27.376 11.7273C27.0275 12.3788 26.8495 13.0947 26.8419 13.875V16.2955C26.8419 17.3106 27.0275 18.1818 27.3988 18.9091C27.77 19.6288 28.2889 20.1818 28.9556 20.5682C29.6222 20.947 30.4025 21.1364 31.2965 21.1364C31.895 21.1364 32.4366 21.053 32.9215 20.8864C33.4063 20.7121 33.8268 20.4583 34.1828 20.125C34.5389 19.7917 34.8078 19.3788 34.9897 18.8864L38.8306 19.3182C38.5881 20.3333 38.126 21.2197 37.4442 21.9773C36.77 22.7273 35.9063 23.3106 34.8533 23.7273C33.8003 24.1364 32.5957 24.3409 31.2397 24.3409ZM45.1498 6.54545L48.6725 12.9886L52.252 6.54545H56.6043L51.343 15.2727L56.6952 24H52.3657L48.6725 17.7159L45.0134 24H40.6498L45.968 15.2727L40.7861 6.54545H45.1498ZM70.5911 16.6591V6.54545H74.7048V24H70.7161V20.8977H70.5343C70.1404 21.875 69.4927 22.6742 68.5911 23.2955C67.6972 23.9167 66.5949 24.2273 65.2843 24.2273C64.1404 24.2273 63.129 23.9735 62.2502 23.4659C61.379 22.9508 60.6972 22.2045 60.2048 21.2273C59.7123 20.2424 59.4661 19.053 59.4661 17.6591V6.54545H63.5798V17.0227C63.5798 18.1288 63.8828 19.0076 64.4889 19.6591C65.0949 20.3106 65.8904 20.6364 66.8752 20.6364C67.4813 20.6364 68.0684 20.4886 68.6366 20.1932C69.2048 19.8977 69.6707 19.4583 70.0343 18.875C70.4055 18.2841 70.5911 17.5455 70.5911 16.6591ZM92.4103 11.1591L88.6603 11.5682C88.5543 11.1894 88.3687 10.8333 88.1035 10.5C87.8459 10.1667 87.4975 9.89773 87.0581 9.69318C86.6187 9.48864 86.0808 9.38636 85.4444 9.38636C84.5884 9.38636 83.8687 9.57197 83.2853 9.94318C82.7096 10.3144 82.4255 10.7955 82.4331 11.3864C82.4255 11.8939 82.6111 12.3068 82.9899 12.625C83.3763 12.9432 84.0126 13.2045 84.899 13.4091L87.8763 14.0455C89.5278 14.4015 90.755 14.9659 91.5581 15.7386C92.3687 16.5114 92.7778 17.5227 92.7853 18.7727C92.7778 19.8712 92.4558 20.8409 91.8194 21.6818C91.1906 22.5152 90.3156 23.1667 89.1944 23.6364C88.0732 24.1061 86.7853 24.3409 85.3308 24.3409C83.1944 24.3409 81.4747 23.8939 80.1717 23C78.8687 22.0985 78.0922 20.8447 77.8422 19.2386L81.8535 18.8523C82.0353 19.6402 82.4217 20.2348 83.0126 20.6364C83.6035 21.0379 84.3725 21.2386 85.3194 21.2386C86.2967 21.2386 87.0808 21.0379 87.6717 20.6364C88.2702 20.2348 88.5694 19.7386 88.5694 19.1477C88.5694 18.6477 88.3763 18.2348 87.9899 17.9091C87.6111 17.5833 87.0202 17.3333 86.2172 17.1591L83.2399 16.5341C81.5656 16.1856 80.327 15.5985 79.524 14.7727C78.7209 13.9394 78.3232 12.8864 78.3308 11.6136C78.3232 10.5379 78.6149 9.60606 79.2058 8.81818C79.8043 8.02273 80.6338 7.40909 81.6944 6.97727C82.7626 6.53788 83.9937 6.31818 85.3876 6.31818C87.4331 6.31818 89.0429 6.75379 90.2172 7.625C91.399 8.49621 92.13 9.67424 92.4103 11.1591Z" fill="#F29145"/>
<path d="M96.0392 24V0.727272H100.255V10.5795H111.039V0.727272H115.266V24H111.039V14.1136H100.255V24H96.0392ZM130.475 16.6591V6.54545H134.589V24H130.6V20.8977H130.418C130.024 21.875 129.376 22.6742 128.475 23.2955C127.581 23.9167 126.479 24.2273 125.168 24.2273C124.024 24.2273 123.013 23.9735 122.134 23.4659C121.263 22.9508 120.581 22.2045 120.089 21.2273C119.596 20.2424 119.35 19.053 119.35 17.6591V6.54545H123.464V17.0227C123.464 18.1288 123.767 19.0076 124.373 19.6591C124.979 20.3106 125.774 20.6364 126.759 20.6364C127.365 20.6364 127.952 20.4886 128.52 20.1932C129.089 19.8977 129.554 19.4583 129.918 18.875C130.289 18.2841 130.475 17.5455 130.475 16.6591ZM138.68 24V0.727272H142.794V9.43182H142.965C143.177 9.00758 143.476 8.55682 143.862 8.07955C144.249 7.5947 144.771 7.18182 145.43 6.84091C146.09 6.49242 146.93 6.31818 147.953 6.31818C149.302 6.31818 150.518 6.66288 151.601 7.35227C152.692 8.03409 153.555 9.04545 154.192 10.3864C154.836 11.7197 155.158 13.3561 155.158 15.2955C155.158 17.2121 154.843 18.8409 154.215 20.1818C153.586 21.5227 152.73 22.5455 151.646 23.25C150.563 23.9545 149.336 24.3068 147.965 24.3068C146.965 24.3068 146.135 24.1402 145.476 23.8068C144.817 23.4735 144.287 23.072 143.885 22.6023C143.491 22.125 143.184 21.6742 142.965 21.25H142.726V24H138.68ZM142.715 15.2727C142.715 16.4015 142.874 17.3902 143.192 18.2386C143.518 19.0871 143.983 19.75 144.59 20.2273C145.203 20.697 145.946 20.9318 146.817 20.9318C147.726 20.9318 148.487 20.6894 149.101 20.2045C149.715 19.7121 150.177 19.0417 150.487 18.1932C150.805 17.3371 150.965 16.3636 150.965 15.2727C150.965 14.1894 150.809 13.2273 150.499 12.3864C150.188 11.5455 149.726 10.8864 149.112 10.4091C148.499 9.93182 147.733 9.69318 146.817 9.69318C145.938 9.69318 145.192 9.92424 144.578 10.3864C143.965 10.8485 143.499 11.4962 143.18 12.3295C142.87 13.1629 142.715 14.1439 142.715 15.2727Z" fill="#FCFCFC"/>
</svg>
