<svg width="68" height="51" viewBox="0 0 68 51" fill="none" xmlns="http://www.w3.org/2000/svg">
<g filter="url(#filter0_dd_3481_1497)">
<rect x="10.6152" y="6" width="46.6143" height="30.0304" rx="5.37857" fill="white"/>
<rect x="10.1152" y="5.5" width="47.6143" height="31.0304" rx="5.87857" stroke="#383B42"/>
<path d="M37.271 14.8484H30.4077V27.1819H37.271V14.8484Z" fill="#FF5F00"/>
<path d="M30.8435 21.0151C30.8425 19.8273 31.1116 18.6548 31.6307 17.5864C32.1497 16.518 32.905 15.5817 33.8394 14.8484C32.6823 13.9389 31.2926 13.3732 29.8293 13.2162C28.3659 13.0591 26.8878 13.3169 25.5641 13.9602C24.2403 14.6034 23.1242 15.6061 22.3434 16.8537C21.5625 18.1013 21.1484 19.5434 21.1484 21.0151C21.1484 22.4869 21.5625 23.929 22.3434 25.1766C23.1242 26.4241 24.2403 27.4269 25.5641 28.0701C26.8878 28.7133 28.3659 28.9712 29.8293 28.8141C31.2926 28.657 32.6823 28.0914 33.8394 27.1819C32.905 26.4485 32.1497 25.5122 31.6307 24.4438C31.1116 23.3754 30.8425 22.2029 30.8435 21.0151Z" fill="#EB001B"/>
<path d="M46.53 21.0151C46.53 22.4869 46.116 23.929 45.3352 25.1765C44.5544 26.4241 43.4383 27.4268 42.1146 28.0701C40.7908 28.7133 39.3128 28.9712 37.8495 28.8141C36.3861 28.657 34.9965 28.0914 33.8394 27.1819C34.773 26.4478 35.5277 25.5113 36.0466 24.4431C36.5656 23.3749 36.8352 22.2028 36.8352 21.0151C36.8352 19.8275 36.5656 18.6554 36.0466 17.5872C35.5277 16.5189 34.773 15.5825 33.8394 14.8484C34.9965 13.9389 36.3861 13.3732 37.8495 13.2162C39.3128 13.0591 40.7908 13.3169 42.1146 13.9602C43.4383 14.6034 44.5544 15.6062 45.3352 16.8537C46.116 18.1013 46.53 19.5434 46.53 21.0151Z" fill="#F79E1B"/>
<path d="M45.7816 25.8756V25.6231H45.8835V25.5716H45.6242V25.6231H45.726V25.8756H45.7816ZM46.2851 25.8756V25.5711H46.2056L46.1142 25.7805L46.0227 25.5711H45.9432V25.8756H45.9993V25.6459L46.085 25.8439H46.1432L46.229 25.6454V25.8756H46.2851Z" fill="#F79E1B"/>
</g>
<defs>
<filter id="filter0_dd_3481_1497" x="0.650949" y="0.517857" width="66.5438" height="49.9588" filterUnits="userSpaceOnUse" color-interpolation-filters="sRGB">
<feFlood flood-opacity="0" result="BackgroundImageFix"/>
<feColorMatrix in="SourceAlpha" type="matrix" values="0 0 0 0 0 0 0 0 0 0 0 0 0 0 0 0 0 0 127 0" result="hardAlpha"/>
<feOffset dy="0.448214"/>
<feGaussianBlur stdDeviation="2.24107"/>
<feColorMatrix type="matrix" values="0 0 0 0 0.717647 0 0 0 0 0.717647 0 0 0 0 0.717647 0 0 0 0.08 0"/>
<feBlend mode="normal" in2="BackgroundImageFix" result="effect1_dropShadow_3481_1497"/>
<feColorMatrix in="SourceAlpha" type="matrix" values="0 0 0 0 0 0 0 0 0 0 0 0 0 0 0 0 0 0 127 0" result="hardAlpha"/>
<feOffset dy="4.48214"/>
<feGaussianBlur stdDeviation="4.48214"/>
<feColorMatrix type="matrix" values="0 0 0 0 0.717647 0 0 0 0 0.717647 0 0 0 0 0.717647 0 0 0 0.08 0"/>
<feBlend mode="normal" in2="effect1_dropShadow_3481_1497" result="effect2_dropShadow_3481_1497"/>
<feBlend mode="normal" in="SourceGraphic" in2="effect2_dropShadow_3481_1497" result="shape"/>
</filter>
</defs>
</svg>
